<?xml version="1.0" encoding="UTF-8" standalone="no"?>
<!-- Created with Inkscape (http://www.inkscape.org/) -->

<svg
   width="250"
   height="150"
   viewBox="0 0 250 150"
   version="1.1"
   id="svg1"
   xml:space="preserve"
   xmlns="http://www.w3.org/2000/svg"
   xmlns:svg="http://www.w3.org/2000/svg"><defs
     id="defs1"><clipPath
       clipPathUnits="userSpaceOnUse"
       id="clipPath26-0"><rect
         style="opacity:0.999;fill:#ffffff;fill-opacity:1;stroke-width:2.13555;paint-order:markers fill stroke"
         id="rect26-0"
         width="99.913071"
         height="85.457458"
         x="-346.44916"
         y="206.03203" /></clipPath><clipPath
       id="clipPath32"
       clipPathUnits="userSpaceOnUse"><path
         id="path30-6"
         d="M 22.4727,190.305 H 90.9121 V 72.8223 H 22.4727 Z" /></clipPath><clipPath
       id="clipPath144"
       clipPathUnits="userSpaceOnUse"><path
         id="path142-5"
         d="M 95.3423,192.224 H 166.921 V 69.04 H 95.3423 Z" /></clipPath></defs><g
     id="layer2"
     style="display:inline"><g
       id="g3"
       transform="matrix(0,-0.09214602,0.09214602,0,111.12421,233.07544)"
       style="display:inline;fill:#aa2d88;fill-opacity:1"><g
         id="g26"
         transform="matrix(4.3946429,0,0,-4.3946429,1299.1261,1810.5336)"
         style="fill:#aa2d88;fill-opacity:1"><g
           id="g28"
           style="fill:#aa2d88;fill-opacity:1" /><g
           id="g136"
           style="fill:#aa2d88;fill-opacity:1"><g
             id="g134"
             clip-path="url(#clipPath32)"
             style="fill:#aa2d88;fill-opacity:1"><g
               id="g36"
               transform="translate(51.6393,161.6715)"
               style="fill:#aa2d88;fill-opacity:1"><path
                 id="path34-3"
                 style="fill:#aa2d88;fill-opacity:1;fill-rule:nonzero;stroke:none"
                 d="M 0,0 10.221,-5.902 10.256,5.998 0.033,11.9 Z" /></g><g
               id="g40"
               transform="translate(66.087,153.3294)"
               style="fill:#aa2d88;fill-opacity:1"><path
                 id="path38-4"
                 style="fill:#aa2d88;fill-opacity:1;fill-rule:nonzero;stroke:none"
                 d="M 0,0 10.222,-5.902 10.255,5.998 0.034,11.9 Z" /></g><g
               id="g44"
               transform="translate(37.1907,170.0136)"
               style="fill:#aa2d88;fill-opacity:1"><path
                 id="path42-9"
                 style="fill:#aa2d88;fill-opacity:1;fill-rule:nonzero;stroke:none"
                 d="M 0,0 10.216,-5.899 10.249,6.002 0.034,11.9 Z" /></g><g
               id="g48"
               transform="translate(80.5419,144.9828)"
               style="fill:#aa2d88;fill-opacity:1"><path
                 id="path46-8"
                 style="fill:#aa2d88;fill-opacity:1;fill-rule:nonzero;stroke:none"
                 d="M 0,0 10.215,-5.898 10.249,6.002 0.034,11.9 Z" /></g><g
               id="g52"
               transform="translate(22.7421,178.3557)"
               style="fill:#aa2d88;fill-opacity:1"><path
                 id="path50-3"
                 style="fill:#aa2d88;fill-opacity:1;fill-rule:nonzero;stroke:none"
                 d="M 0,0 10.215,-5.898 10.249,6.003 5.259,8.884 0.034,11.901 Z" /></g><g
               id="g56"
               transform="translate(51.6744,144.6534)"
               style="fill:#aa2d88;fill-opacity:1"><path
                 id="path54-4"
                 style="fill:#aa2d88;fill-opacity:1;fill-rule:nonzero;stroke:none"
                 d="M 0,0 10.221,-5.901 10.255,6.006 0.033,11.908 Z" /></g><g
               id="g60"
               transform="translate(66.123,136.3113)"
               style="fill:#aa2d88;fill-opacity:1"><path
                 id="path58-2"
                 style="fill:#aa2d88;fill-opacity:1;fill-rule:nonzero;stroke:none"
                 d="M 0,0 10.221,-5.902 10.255,6.006 0.032,11.907 Z" /></g><g
               id="g64"
               transform="translate(37.2258,152.9964)"
               style="fill:#aa2d88;fill-opacity:1"><path
                 id="path62-7"
                 style="fill:#aa2d88;fill-opacity:1;fill-rule:nonzero;stroke:none"
                 d="M 0,0 10.215,-5.899 10.249,6.009 0.033,11.907 Z" /></g><g
               id="g68"
               transform="translate(80.577,127.9647)"
               style="fill:#aa2d88;fill-opacity:1"><path
                 id="path66-7"
                 style="fill:#aa2d88;fill-opacity:1;fill-rule:nonzero;stroke:none"
                 d="M 0,0 10.216,-5.899 10.249,6.01 0.034,11.908 Z" /></g><g
               id="g72"
               transform="translate(22.7772,161.3376)"
               style="fill:#aa2d88;fill-opacity:1"><path
                 id="path70-1"
                 style="fill:#aa2d88;fill-opacity:1;fill-rule:nonzero;stroke:none"
                 d="M 0,0 10.216,-5.898 10.249,6.01 0.034,11.908 Z" /></g><g
               id="g76"
               transform="translate(51.4683,128.3481)"
               style="fill:#aa2d88;fill-opacity:1"><path
                 id="path74-1"
                 style="fill:#aa2d88;fill-opacity:1;fill-rule:nonzero;stroke:none"
                 d="M 0,0 10.215,-5.898 10.249,6.009 0.033,11.907 Z" /></g><g
               id="g80"
               transform="translate(65.9169,120.006)"
               style="fill:#aa2d88;fill-opacity:1"><path
                 id="path78-0"
                 style="fill:#aa2d88;fill-opacity:1;fill-rule:nonzero;stroke:none"
                 d="M 0,0 10.215,-5.899 10.248,6.008 0.033,11.907 Z" /></g><g
               id="g84"
               transform="translate(37.0134,136.6947)"
               style="fill:#aa2d88;fill-opacity:1"><path
                 id="path82-5"
                 style="fill:#aa2d88;fill-opacity:1;fill-rule:nonzero;stroke:none"
                 d="M 0,0 10.216,-5.899 10.249,6.008 0.034,11.907 Z" /></g><g
               id="g88"
               transform="translate(80.3646,111.6639)"
               style="fill:#aa2d88;fill-opacity:1"><path
                 id="path86-5"
                 style="fill:#aa2d88;fill-opacity:1;fill-rule:nonzero;stroke:none"
                 d="M 0,0 10.216,-5.899 10.249,6.009 0.034,11.906 Z" /></g><g
               id="g92"
               transform="translate(22.5889,153.4312)"
               style="fill:#aa2d88;fill-opacity:1"><path
                 id="path90-8"
                 style="fill:#aa2d88;fill-opacity:1;fill-rule:nonzero;stroke:none"
                 d="M 0,0 -0.024,-8.395 10.192,-14.292 10.225,-2.386 0.01,3.513 Z" /></g><g
               id="g96"
               transform="translate(51.4971,111.3408)"
               style="fill:#aa2d88;fill-opacity:1"><path
                 id="path94-1"
                 style="fill:#aa2d88;fill-opacity:1;fill-rule:nonzero;stroke:none"
                 d="M 0,0 10.221,-5.902 10.255,5.999 0.033,11.901 Z" /></g><g
               id="g100"
               transform="translate(65.9457,102.9978)"
               style="fill:#aa2d88;fill-opacity:1"><path
                 id="path98-4"
                 style="fill:#aa2d88;fill-opacity:1;fill-rule:nonzero;stroke:none"
                 d="m 0,0 10.221,-5.901 0.034,11.9 -10.222,5.903 z" /></g><g
               id="g104"
               transform="translate(37.0485,119.6829)"
               style="fill:#aa2d88;fill-opacity:1"><path
                 id="path102-8"
                 style="fill:#aa2d88;fill-opacity:1;fill-rule:nonzero;stroke:none"
                 d="M 0,0 10.216,-5.898 10.249,6.003 0.034,11.901 Z" /></g><g
               id="g108"
               transform="translate(80.4006,94.6521)"
               style="fill:#aa2d88;fill-opacity:1"><path
                 id="path106-6"
                 style="fill:#aa2d88;fill-opacity:1;fill-rule:nonzero;stroke:none"
                 d="M 0,0 10.215,-5.899 10.248,6.003 0.033,11.901 Z" /></g><g
               id="g112"
               transform="translate(22.6008,128.025)"
               style="fill:#aa2d88;fill-opacity:1"><path
                 id="path110-7"
                 style="fill:#aa2d88;fill-opacity:1;fill-rule:nonzero;stroke:none"
                 d="M 0,0 10.215,-5.898 10.248,6.003 0.033,11.901 Z" /></g><g
               id="g116"
               transform="translate(51.5799,95.4054)"
               style="fill:#aa2d88;fill-opacity:1"><path
                 id="path114-0"
                 style="fill:#aa2d88;fill-opacity:1;fill-rule:nonzero;stroke:none"
                 d="M 0,0 9.215,-5.32 10.216,-5.899 10.249,6.009 0.034,11.907 Z" /></g><g
               id="g120"
               transform="translate(66.0285,87.0629)"
               style="fill:#aa2d88;fill-opacity:1"><path
                 id="path118-1"
                 style="fill:#aa2d88;fill-opacity:1;fill-rule:nonzero;stroke:none"
                 d="M 0,0 10.215,-5.898 10.249,6.01 0.033,11.907 Z" /></g><g
               id="g124"
               transform="translate(37.1259,103.7511)"
               style="fill:#aa2d88;fill-opacity:1"><path
                 id="path122-2"
                 style="fill:#aa2d88;fill-opacity:1;fill-rule:nonzero;stroke:none"
                 d="M 0,0 2.96,-1.709 10.22,-5.901 10.255,6.006 0.033,11.908 Z" /></g><g
               id="g128"
               transform="translate(80.4762,78.7211)"
               style="fill:#aa2d88;fill-opacity:1"><path
                 id="path126-2"
                 style="fill:#aa2d88;fill-opacity:1;fill-rule:nonzero;stroke:none"
                 d="M 0,0 10.216,-5.898 10.249,6.009 0.034,11.907 Z" /></g><g
               id="g132"
               transform="translate(22.6764,112.0937)"
               style="fill:#aa2d88;fill-opacity:1"><path
                 id="path130-5"
                 style="fill:#aa2d88;fill-opacity:1;fill-rule:nonzero;stroke:none"
                 d="M 0,0 10.222,-5.902 10.255,6.006 0.034,11.907 Z" /></g></g></g></g><g
         id="g138"
         transform="matrix(4.3946429,0,0,-4.3946429,1299.1261,1810.5336)"
         style="fill:#aa2d88;fill-opacity:1"><g
           id="g140"
           style="fill:#aa2d88;fill-opacity:1" /><g
           id="g152"
           style="fill:#aa2d88;fill-opacity:1"><g
             id="g150"
             clip-path="url(#clipPath144)"
             style="fill:#aa2d88;fill-opacity:1"><g
               id="g148"
               transform="translate(95.3424,151.029)"
               style="fill:#aa2d88;fill-opacity:1"><path
                 id="path146-7"
                 style="fill:#aa2d88;fill-opacity:1;fill-rule:nonzero;stroke:none"
                 d="m 0,0 0.23,-81.989 71.349,41.196 -0.232,81.988 z" /></g></g></g></g></g><g
       aria-label="RUPERTI EXPLORER"
       id="text7458"
       style="display:inline;font-weight:800;font-size:126.456px;line-height:0.8;font-family:'Open Sans';-inkscape-font-specification:'Open Sans Ultra-Bold';text-align:justify;opacity:0.999;stroke-width:10.25;paint-order:markers fill stroke;fill:#aa2d88;fill-opacity:1"
       transform="matrix(0.30339969,0,0,0.30339969,-375.07307,-233.9596)"><path
         d="m 1265.8105,921.98911 q 12.2875,0 20.438,3.02556 8.1505,2.96381 12.2257,8.89144 4.137,5.92762 4.137,14.75731 0,5.49541 -1.8524,10.00287 -1.8524,4.50747 -5.3101,8.08874 -3.3961,3.51953 -8.1505,6.17461 l 26.3038,39.33226 h -27.6622 l -19.1413,-32.84892 h -6.1746 v 32.84892 h -24.3897 v -90.27279 z m -0.3704,18.46208 h -4.8162 v 20.6232 h 4.5692 q 5.6189,0 9.2001,-2.46984 3.5813,-2.46985 3.5813,-8.8297 0,-4.38397 -2.9638,-6.85381 -2.9638,-2.46985 -9.5706,-2.46985 z"
         id="path7458"
         style="fill:#aa2d88;fill-opacity:1" /><path
         d="m 1398.5646,921.98911 v 54.33656 q 0,11.36129 -4.3222,19.75876 -4.3222,8.33567 -12.9667,12.90497 -8.6444,4.5074 -21.6729,4.5074 -18.6473,0 -28.4649,-9.5706 -9.8176,-9.57067 -9.8176,-27.04481 v -54.89228 h 24.5132 v 52.97815 q 0,9.57065 3.5812,13.89287 3.5813,4.32223 10.5586,4.32223 5.0015,0 8.1505,-1.85238 3.1491,-1.91413 4.5692,-5.98938 1.4819,-4.07524 1.4819,-10.49683 v -52.85466 z"
         id="path7459"
         style="fill:#aa2d88;fill-opacity:1" /><path
         d="m 1448.7642,921.98911 q 17.1654,0 25.6864,7.47128 8.5827,7.47128 8.5827,21.24066 0,6.17461 -1.7906,11.85525 -1.7289,5.68064 -5.7424,10.12636 -3.9518,4.44571 -10.5586,7.03905 -6.5451,2.59334 -16.1775,2.59334 h -6.8538 v 29.94685 h -24.3897 v -90.27279 z m -0.5557,19.69701 h -6.2981 v 20.74668 h 4.8162 q 3.149,0 5.8659,-1.04968 2.7168,-1.11143 4.3222,-3.51953 1.6671,-2.46984 1.6671,-6.54508 0,-4.26048 -2.5316,-6.91557 -2.5315,-2.71682 -7.8417,-2.71682 z"
         id="path7460"
         style="fill:#aa2d88;fill-opacity:1" /><path
         d="m 1551.0157,1012.2619 h -53.5956 v -90.27279 h 53.5956 v 19.57351 h -29.2059 v 14.20161 h 27.0448 v 19.57351 h -27.0448 v 17.04192 h 29.2059 z"
         id="path7461"
         style="fill:#aa2d88;fill-opacity:1" /><path
         d="m 1596.3991,921.98911 q 12.2875,0 20.438,3.02556 8.1505,2.96381 12.2257,8.89144 4.137,5.92762 4.137,14.75731 0,5.49541 -1.8524,10.00287 -1.8524,4.50747 -5.3101,8.08874 -3.3961,3.51953 -8.1505,6.17461 l 26.3038,39.33226 h -27.6622 l -19.1413,-32.84892 h -6.1746 v 32.84892 h -24.3898 v -90.27279 z m -0.3705,18.46208 h -4.8161 v 20.6232 h 4.5692 q 5.6189,0 9.2001,-2.46984 3.5813,-2.46985 3.5813,-8.8297 0,-4.38397 -2.9638,-6.85381 -2.9638,-2.46985 -9.5707,-2.46985 z"
         id="path7462"
         style="fill:#aa2d88;fill-opacity:1" /><path
         d="m 1692.2291,1012.2619 h -24.3898 v -70.3288 h -22.0433 v -19.94399 h 68.4147 v 19.94399 h -21.9816 z"
         id="path7463"
         style="fill:#aa2d88;fill-opacity:1" /><path
         d="m 1727.1156,1012.2619 v -90.27279 h 24.5132 v 90.27279 z"
         id="path7464"
         style="fill:#aa2d88;fill-opacity:1" /><path
         d="m 1289.8298,1113.4267 h -53.5956 v -90.2728 h 53.5956 v 19.5735 h -29.2059 v 14.2016 h 27.0448 v 19.5735 h -27.0448 v 17.042 h 29.2059 z"
         id="path7465"
         style="fill:#aa2d88;fill-opacity:1" /><path
         d="m 1386.9564,1113.4267 h -28.218 l -17.5976,-28.218 -17.4124,28.218 h -27.6005 l 29.9468,-46.1861 -28.1562,-44.0867 h 27.0448 l 16.301,27.9092 15.6835,-27.9092 h 27.8475 l -28.5885,46.0009 z"
         id="path7466"
         style="fill:#aa2d88;fill-opacity:1" /><path
         d="m 1428.3262,1023.1539 q 17.1655,0 25.6864,7.4713 8.5827,7.4713 8.5827,21.2406 0,6.1747 -1.7906,11.8553 -1.7289,5.6806 -5.7424,10.1264 -3.9517,4.4457 -10.5586,7.039 -6.5451,2.5933 -16.1775,2.5933 h -6.8538 v 29.9469 h -24.3897 v -90.2728 z m -0.5557,19.697 h -6.2981 v 20.7467 h 4.8162 q 3.1491,0 5.8659,-1.0497 2.7168,-1.1114 4.3222,-3.5195 1.6672,-2.4698 1.6672,-6.5451 0,-4.2605 -2.5316,-6.9156 -2.5316,-2.7168 -7.8418,-2.7168 z"
         id="path7467"
         style="fill:#aa2d88;fill-opacity:1" /><path
         d="m 1476.9822,1113.4267 v -90.2728 h 24.3897 v 70.5758 h 34.763 v 19.697 z"
         id="path7468"
         style="fill:#aa2d88;fill-opacity:1" /><path
         d="m 1635.0522,1068.1668 q 0,10.4351 -2.5316,19.0178 -2.4699,8.521 -7.78,14.6956 -5.3102,6.1746 -13.6459,9.5089 -8.3357,3.2725 -19.944,3.2725 -11.3613,0 -19.697,-3.2725 -8.274,-3.3343 -13.6459,-9.4472 -5.3719,-6.1746 -7.9652,-14.7573 -2.5934,-8.5827 -2.5934,-19.1413 0,-14.0781 4.631,-24.4514 4.6927,-10.4351 14.4486,-16.1158 9.7559,-5.7423 24.9454,-5.7423 15.4365,0 25.0689,5.7423 9.6941,5.7424 14.2016,16.1775 4.5075,10.4351 4.5075,24.5132 z m -62.1166,0 q 0,8.1505 1.8524,14.0164 1.8524,5.8659 5.8659,9.0149 4.0135,3.1491 10.4968,3.1491 6.7303,0 10.6821,-3.1491 4.0135,-3.149 5.7424,-9.0149 1.7906,-5.8659 1.7906,-14.0164 0,-12.2257 -4.0752,-19.3265 -4.0753,-7.1008 -14.0164,-7.1008 -6.6068,0 -10.6821,3.2108 -4.0135,3.2108 -5.8659,9.1384 -1.7906,5.9276 -1.7906,14.0781 z"
         id="path7469"
         style="fill:#aa2d88;fill-opacity:1" /><path
         d="m 1680.9295,1023.1539 q 12.2875,0 20.438,3.0256 8.1505,2.9638 12.2257,8.8914 4.137,5.9276 4.137,14.7573 0,5.4954 -1.8524,10.0029 -1.8524,4.5075 -5.3102,8.0887 -3.396,3.5196 -8.1504,6.1746 l 26.3038,39.3323 h -27.6623 l -19.1412,-32.8489 h -6.1747 v 32.8489 h -24.3897 v -90.2728 z m -0.3705,18.4621 h -4.8162 v 20.6232 h 4.5693 q 5.6189,0 9.2001,-2.4699 3.5813,-2.4698 3.5813,-8.8296 0,-4.384 -2.9638,-6.8539 -2.9638,-2.4698 -9.5707,-2.4698 z"
         id="path7470"
         style="fill:#aa2d88;fill-opacity:1" /><path
         d="m 1790.5288,1113.4267 h -53.5956 v -90.2728 h 53.5956 v 19.5735 h -29.2059 v 14.2016 h 27.0448 v 19.5735 h -27.0448 v 17.042 h 29.2059 z"
         id="path7471"
         style="fill:#aa2d88;fill-opacity:1" /><path
         d="m 1835.9122,1023.1539 q 12.2875,0 20.438,3.0256 8.1505,2.9638 12.2257,8.8914 4.137,5.9276 4.137,14.7573 0,5.4954 -1.8524,10.0029 -1.8524,4.5075 -5.3102,8.0887 -3.396,3.5196 -8.1504,6.1746 l 26.3038,39.3323 h -27.6623 l -19.1412,-32.8489 h -6.1747 v 32.8489 h -24.3897 v -90.2728 z m -0.3705,18.4621 h -4.8162 v 20.6232 h 4.5693 q 5.6189,0 9.2001,-2.4699 3.5813,-2.4698 3.5813,-8.8296 0,-4.384 -2.9638,-6.8539 -2.9638,-2.4698 -9.5707,-2.4698 z"
         id="path7472"
         style="fill:#aa2d88;fill-opacity:1" /></g></g></svg>
