<?xml version="1.0" encoding="UTF-8"?>
<!-- Created with Inkscape (http://www.inkscape.org/) -->
<svg width="16" height="16" version="1.1" viewBox="0 0 16 16" xml:space="preserve" xmlns="http://www.w3.org/2000/svg"><defs><clipPath id="clipPath32"><path d="m22.473 190.3h68.439v-117.48h-68.439z"/></clipPath><clipPath id="clipPath144"><path d="m95.342 192.22h71.579v-123.18h-71.579z"/></clipPath></defs><path d="m25 38.354 6.1e-5 -5.565 5.4054 3.3407v7.7891h-5.4054zm0.63344 24.484 0.12615-16.216 2.0692 6e-6 2.0693-6e-6 -0.12612 16.216-0.12603 16.216h-4.1386zm-0.63338 22.813v-3.8946h2.7027l2.7027-3e-5 3e-5 5.565-3e-5 5.5649-5.4054-3.3407zm8.5256-42.943-0.93371-4.817 7.2729 2.4218 0.93374 4.817 0.93383 4.817-7.273-2.4218zm-0.41754 12.859v-3.9901l3.3784 1.1248 3.3784 1.1249 0.87206 4.4963 0.872 4.4963-8.5008-3.2621zm0.41754 11.466-0.93377-4.8171 7.273 2.4218 0.9338 4.8171 0.93377 4.817-7.273-2.4218zm-0.41754 10.215v-3.4286l4.0541 1.5557 4.0541 1.5557-9.1e-5 10.437v10.437l-8.1081-3.1112 3e-5 -3.765-3e-5 -3.7649h6.4864l-3.2432-3.2432-3.2432-3.2433zm10.811-28.127v-5.0314l8.1082 3.1114v5.0314l-3e-5 5.0314-8.1081-3.1114zm0.41763 12.507-0.93383-4.8171 7.273 2.4218 0.93371 4.8171 0.93383 4.817-7.2729-2.4218zm0.06177 11.132-0.87209-4.4963 8.5008 3.262v7.9803l-6.7568-2.2497zm-0.4794 12.538v-3.9901l6.7568 2.2498 0.87203 4.4963 0.87194 4.4963-4.2504-1.631-4.2504-1.631zm0.41754 11.466-0.93374-4.817 7.273 2.4218 0.9338 4.817 0.93374 4.8171-3.6365-1.2109-3.6364-1.2109zm10.393-41.195v-3.9901l3.3784 1.1248 3.3784 1.1249 1.744 8.9926-8.5008-3.2621zm0.47946 11.786-0.87212-4.4963 4.2504 1.631 4.2504 1.6311v7.9802l-3.3784-1.1249-3.3784-1.1249zm-0.47946 11.497v-5.0314l4.0541 1.5557 4.054 1.5557v10.063l-4.0541-1.5557-4.054-1.5557zm0.78025 18.036-0.57115-10.104 3.2739 1.0873 3.2738 1.0873 0.57115 10.104 0.57115 10.104-6.5476-2.1747zm10.522-28.865 0.14618-10.588 2.469-3e-6h2.4688l1.6605 4.3268 1.6603 4.3268-6.7702 4.1842 5.9824 3.6974 6.1e-5 3.8097-6.1e-5 3.8097-3.8815-1.4896-3.8816-1.4894zm-0.07339 17.931-0.93386-4.817 3.6365 1.2109 3.6364 1.2109 0.93383 4.817 0.93377 4.817-7.273-2.4218zm0.06751 17.633 0.14645-10.605 7.4765 2.869 6.1e-5 3.7649v3.7649h-6.4865l6.4864 6.4865v4.3243h-3.8845l-3.8847-6e-5zm10.326-14.849 9.1e-5 -28.476 12.162-7.5631 34.073-19.588h2.413v56.284l-44.595 25.522-2.027 1.1488-2.027 1.1488z" style="display:none;fill:#fff;stroke-width:.52719"/><g transform="matrix(.12224 0 0 .12224 -1.168 -.87624)" style="fill:#fff"><g transform="matrix(.68003 0 0 -.68003 10.572 161.45)" style="fill:#fff"><g style="fill:#fff"><g clip-path="url(#clipPath32)" style="fill:#fff"><g transform="translate(51.639 161.67)" style="fill:#fff"><path d="m0 0 10.221-5.902 0.035 11.9-10.223 5.902z" style="fill:#fff"/></g><g transform="translate(66.087 153.33)" style="fill:#fff"><path d="m0 0 10.222-5.902 0.033 11.9-10.221 5.902z" style="fill:#fff"/></g><g transform="translate(37.191 170.01)" style="fill:#fff"><path d="m0 0 10.216-5.899 0.033 11.901-10.215 5.898z" style="fill:#fff"/></g><g transform="translate(80.542 144.98)" style="fill:#fff"><path d="m0 0 10.215-5.898 0.034 11.9-10.215 5.898z" style="fill:#fff"/></g><g transform="translate(22.742 178.36)" style="fill:#fff"><path d="m0 0 10.215-5.898 0.034 11.901-4.99 2.881-5.225 3.017z" style="fill:#fff"/></g><g transform="translate(51.674 144.65)" style="fill:#fff"><path d="m0 0 10.221-5.901 0.034 11.907-10.222 5.902z" style="fill:#fff"/></g><g transform="translate(66.123 136.31)" style="fill:#fff"><path d="m0 0 10.221-5.902 0.034 11.908-10.223 5.901z" style="fill:#fff"/></g><g transform="translate(37.226 153)" style="fill:#fff"><path d="m0 0 10.215-5.899 0.034 11.908-10.216 5.898z" style="fill:#fff"/></g><g transform="translate(80.577 127.96)" style="fill:#fff"><path d="m0 0 10.216-5.899 0.033 11.909-10.215 5.898z" style="fill:#fff"/></g><g transform="translate(22.777 161.34)" style="fill:#fff"><path d="m0 0 10.216-5.898 0.033 11.908-10.215 5.898z" style="fill:#fff"/></g><g transform="translate(51.468 128.35)" style="fill:#fff"><path d="m0 0 10.215-5.898 0.034 11.907-10.216 5.898z" style="fill:#fff"/></g><g transform="translate(65.917 120.01)" style="fill:#fff"><path d="m0 0 10.215-5.899 0.033 11.907-10.215 5.899z" style="fill:#fff"/></g><g transform="translate(37.013 136.69)" style="fill:#fff"><path d="m0 0 10.216-5.899 0.033 11.907-10.215 5.899z" style="fill:#fff"/></g><g transform="translate(80.365 111.66)" style="fill:#fff"><path d="m0 0 10.216-5.899 0.033 11.908-10.215 5.897z" style="fill:#fff"/></g><g transform="translate(22.589 153.43)" style="fill:#fff"><path d="m0 0-0.024-8.395 10.216-5.897 0.033 11.906-10.215 5.899z" style="fill:#fff"/></g><g transform="translate(51.497 111.34)" style="fill:#fff"><path d="m0 0 10.221-5.902 0.034 11.901-10.222 5.902z" style="fill:#fff"/></g><g transform="translate(65.946 103)" style="fill:#fff"><path d="m0 0 10.221-5.901 0.034 11.9-10.222 5.903z" style="fill:#fff"/></g><g transform="translate(37.048 119.68)" style="fill:#fff"><path d="m0 0 10.216-5.898 0.033 11.901-10.215 5.898z" style="fill:#fff"/></g><g transform="translate(80.401 94.652)" style="fill:#fff"><path d="m0 0 10.215-5.899 0.033 11.902-10.215 5.898z" style="fill:#fff"/></g><g transform="translate(22.601 128.02)" style="fill:#fff"><path d="m0 0 10.215-5.898 0.033 11.901-10.215 5.898z" style="fill:#fff"/></g><g transform="translate(51.58 95.405)" style="fill:#fff"><path d="m0 0 9.215-5.32 1.001-0.579 0.033 11.908-10.215 5.898z" style="fill:#fff"/></g><g transform="translate(66.028 87.063)" style="fill:#fff"><path d="m0 0 10.215-5.898 0.034 11.908-10.216 5.897z" style="fill:#fff"/></g><g transform="translate(37.126 103.75)" style="fill:#fff"><path d="m0 0 10.22-5.901 0.035 11.907-10.222 5.902z" style="fill:#fff"/></g><g transform="translate(80.476 78.721)" style="fill:#fff"><path d="m0 0 10.216-5.898 0.033 11.907-10.215 5.898z" style="fill:#fff"/></g><g transform="translate(22.676 112.09)" style="fill:#fff"><path d="m0 0 10.222-5.902 0.033 11.908-10.221 5.901z" style="fill:#fff"/></g></g><g clip-path="url(#clipPath144)" style="fill:#fff"><g transform="translate(95.342 151.03)" style="fill:#fff"><path d="m0 0 0.23-81.989 71.349 41.196-0.232 81.988z" style="fill:#fff"/></g></g></g></g></g></svg>
